<svg width="513" height="512" viewBox="0 0 513 512" fill="none" xmlns="http://www.w3.org/2000/svg">
<path d="M373.005 83.356C369.289 85.4794 364.511 88.1337 362.388 89.2713C352.15 94.9591 317.416 114.449 305.889 120.971C304.448 121.806 294.892 127.19 284.654 132.954C274.416 138.641 265.468 143.874 264.709 144.557C263.496 145.618 263.42 153.278 263.572 289.103L263.799 432.511L267.97 432.284C272.445 432.056 284.124 429.857 291.631 427.885C302.552 425.079 317.416 418.026 329.323 409.912C339.03 403.314 352.301 390.422 358.52 381.397C368.758 366.684 376.266 348.711 379.603 330.813L381.347 321.789L381.499 215.996C381.65 114.677 381.347 79.4883 380.285 79.4883C380.058 79.4883 376.797 81.2325 373.005 83.356ZM219.813 268.778C212.685 272.798 204.343 277.424 201.233 279.092C198.124 280.837 190.464 285.083 184.17 288.648C166.651 298.582 161.798 301.237 156.489 304.194C139.577 313.447 131.463 327.325 131.463 347.043C131.539 363.272 136.999 376.316 150.498 392.318C160.357 403.996 173.78 413.704 190.692 421.363C203.357 427.051 222.468 432.132 231.265 432.132H234.602V346.815C234.602 278.789 234.374 261.498 233.616 261.498C233.161 261.498 226.866 264.759 219.813 268.778Z" fill="black"/>
</svg>
